# 3ds Max Wavefront OBJ Exporter v0.99 - (c)2007 guruware
# File Created: 03.11.2022 14:59:31

mtllib PRspace.mtl

#
# object Box002
#

v  77.1106 9.6744 16.1846
v  77.1106 9.6744 -6.0892
v  80.5461 9.6744 -6.0892
v  80.5461 9.6744 16.1846
v  77.1106 13.1386 16.1846
v  80.5461 13.1386 16.1846
v  80.5461 13.1386 -6.0892
v  77.1106 13.1386 -6.0892
# 8 vertices

vn -0.5774 -0.5774 0.5774
vn -0.5774 -0.5774 -0.5774
vn 0.5774 -0.5774 -0.5774
vn 0.5774 -0.5774 0.5774
vn -0.5774 0.5774 0.5774
vn 0.5774 0.5774 0.5774
vn 0.5774 0.5774 -0.5774
vn -0.5774 0.5774 -0.5774
# 8 vertex normals

vt 1.0000 0.0000 0.0000
vt 1.0000 1.0000 0.0000
vt 0.0000 1.0000 0.0000
vt 0.0000 0.0000 0.0000
# 4 texture coords

o Box002
g Box002
usemtl wire_135006006
s 2
f 1/1/1 2/2/2 3/3/3 4/4/4 
s 4
f 5/4/5 6/1/6 7/2/7 8/3/8 
s 8
f 1/4/1 4/1/4 6/2/6 5/3/5 
s 16
f 4/4/4 3/1/3 7/2/7 6/3/6 
s 32
f 3/4/3 2/1/2 8/2/8 7/3/7 
s 64
f 2/4/2 1/1/1 5/2/5 8/3/8 
# 6 polygons

#
# object Box001
#

v  19.2736 0.0000 -6.6364
v  52.5090 0.0000 -6.6364
v  52.5090 0.0000 16.7317
v  19.2736 0.0000 16.7317
v  19.2736 32.5564 16.7317
v  44.0803 32.5564 16.7317
v  44.0803 32.5564 -6.6364
v  19.2736 32.5564 -6.6364
v  44.8338 12.5002 105.2492
v  26.9488 12.5002 105.2492
v  26.9488 10.3062 105.2492
v  44.8338 10.3062 105.2492
v  79.4124 9.0358 -7.1338
v  79.4124 13.7707 -7.1338
v  79.4124 13.7707 17.2291
v  79.4124 9.0358 17.2291
v  26.9488 12.5002 -95.1539
v  44.8338 12.5002 -95.1539
v  44.8338 10.3062 -95.1539
v  26.9488 10.3062 -95.1539
v  -96.9667 10.1865 11.3082
v  -96.9667 12.6200 11.3082
v  -96.9667 12.6200 -1.2129
v  -96.9667 10.1865 -1.2129
v  52.5090 15.2043 24.6057
v  19.2736 15.2043 24.6057
v  19.2565 15.2043 24.6057
v  51.4668 15.2043 24.6057
v  19.2736 7.6022 24.6057
v  52.5090 7.6022 24.6057
v  51.4668 7.6022 24.6057
v  19.2565 7.6022 24.6057
v  75.2198 15.2043 -14.5104
v  75.2198 18.0702 -13.5210
v  75.2198 21.8250 -9.6862
v  75.2198 22.6183 -6.6364
v  75.2198 22.6183 16.7317
v  75.2198 21.8250 19.7815
v  75.2198 18.0702 23.6163
v  75.2198 15.2043 24.6057
v  75.2198 7.6022 24.6057
v  75.2238 4.7363 23.6163
v  75.2289 0.9815 19.7815
v  75.2303 0.0000 16.7317
v  75.2303 0.0000 -6.6364
v  75.2289 0.9815 -9.6862
v  75.2238 4.7363 -13.5210
v  75.2198 7.6022 -14.5104
v  19.2736 15.2043 -14.5104
v  52.5090 15.2043 -14.5104
v  19.2583 15.2043 -14.5104
v  52.5090 7.6022 -14.5104
v  19.2736 7.6022 -14.5104
v  19.2583 7.6022 -14.5104
v  -96.9667 14.4451 10.6781
v  -96.9667 15.0534 8.7878
v  -96.9667 15.0534 1.3076
v  -96.9667 14.4451 -0.5828
v  -96.9667 8.3614 -0.5828
v  -96.9667 7.7530 1.3076
v  -96.9667 7.7530 8.7878
v  -96.9667 8.3614 10.6781
v  15.5392 0.5114 12.9973
v  -59.5265 0.5114 12.9973
v  -59.5265 0.5114 -2.9020
v  15.5392 0.5114 -2.9020
v  57.3505 26.4627 16.7317
v  57.3505 26.4627 -6.6364
v  -7.8783 25.8229 -2.4464
v  -59.0796 22.5182 -2.4464
v  -59.0796 22.5182 12.5417
v  -7.8783 25.8229 12.5417
v  -26.9869 15.2043 32.7719
v  -31.9854 15.2043 32.7719
v  -31.9854 7.6022 32.7719
v  -26.9869 7.6022 32.7719
v  -26.9859 7.6022 -22.6765
v  -31.9847 7.6022 -22.6765
v  -31.9847 15.2043 -22.6765
v  -26.9859 15.2043 -22.6765
v  -63.2609 15.2043 24.6057
v  -31.9854 15.2043 24.6057
v  -15.6195 15.2043 24.6057
v  -15.6195 7.6022 24.6057
v  -31.9854 7.6022 24.6057
v  -63.2609 7.6022 24.6057
v  -15.6184 15.2043 -14.5104
v  -31.9847 15.2043 -14.5104
v  -63.2609 15.2043 -14.5104
v  -63.2609 7.6022 -14.5104
v  -31.9847 7.6022 -14.5104
v  -15.6184 7.6022 -14.5104
v  25.9065 12.5002 96.8294
v  43.7916 12.5002 96.8294
v  20.5278 14.1664 25.6001
v  20.5278 8.6401 25.6001
v  27.9917 11.2697 95.8350
v  27.9917 11.5368 95.8350
v  43.7916 10.3062 96.8294
v  25.9065 10.3062 96.8294
v  49.3679 8.6401 25.6001
v  49.3679 14.1664 25.6001
v  41.9041 11.5368 95.8350
v  41.9041 11.2697 95.8350
v  44.8338 12.5002 -86.7340
v  25.9065 12.5002 -86.7340
v  50.4101 14.1664 -15.5048
v  50.4101 8.6401 -15.5048
v  42.9463 11.2697 -85.7396
v  42.9463 11.5368 -85.7396
v  25.9065 10.3062 -86.7340
v  44.8338 10.3062 -86.7340
v  20.5278 8.6401 -15.5048
v  20.5278 14.1664 -15.5048
v  27.9917 11.5368 -85.7396
v  27.9917 11.2697 -85.7396
v  -3.6970 26.6509 16.7317
v  19.2736 20.9059 22.6372
v  52.5090 20.9059 22.6372
v  -3.6970 26.6509 -6.6364
v  52.5090 20.9059 -12.5419
v  19.2736 20.9059 -12.5419
v  72.2198 20.9059 22.6372
v  72.2198 20.9059 -12.5419
v  -63.2609 20.1197 -6.6364
v  -63.2609 20.9059 -12.5419
v  -63.2609 20.1197 16.7317
v  -63.2609 20.9059 22.6372
v  48.3132 22.5002 97.8294
v  31.4991 22.5002 97.8294
v  31.4991 22.5002 104.2492
v  48.3132 22.5002 104.2492
v  31.4991 0.3062 97.8294
v  48.3132 0.3062 97.8294
v  48.3132 0.3062 104.2492
v  31.4991 0.3062 104.2492
v  31.4991 22.5002 -87.7340
v  48.3132 22.5002 -87.7340
v  48.3132 22.5002 -94.1539
v  31.4991 22.5002 -94.1539
v  48.3132 0.3062 -87.7340
v  31.4991 0.3062 -87.7340
v  31.4991 0.3062 -94.1539
v  48.3132 0.3062 -94.1539
v  19.2736 1.9005 -12.5419
v  52.5090 1.9005 -12.5419
v  52.5090 1.9005 22.6372
v  19.2736 1.9005 22.6372
v  72.2277 1.9005 -12.5419
v  72.2277 1.9005 22.6372
v  -63.2609 0.0000 16.7317
v  -63.2609 1.9005 22.6372
v  -63.2609 0.0000 -6.6364
v  -63.2609 1.9005 -12.5419
v  -84.9145 13.8728 17.7545
v  -84.9145 8.9337 17.7545
v  -84.9145 17.5772 16.4756
v  -84.9145 16.1252 12.6388
v  -84.9145 16.1252 -2.5435
v  -84.9145 17.5772 -6.3803
v  -84.9145 13.8728 -7.6592
v  -84.9145 8.9337 -7.6592
v  -84.9145 5.2293 -6.3803
v  -84.9145 3.9946 -2.5435
v  -84.9145 3.9946 12.6388
v  -84.9145 5.2293 16.4756
v  81.4099 26.5174 -18.0369
v  81.4099 26.5174 28.1322
v  81.4212 -3.7066 -18.0373
v  81.4212 -3.7066 28.1326
v  -50.9678 11.7979 28.0122
v  -50.9678 11.0087 28.0122
v  -50.9678 11.0087 29.3654
v  -50.9678 11.7979 29.3654
v  -50.9671 11.0086 -17.9169
v  -50.9671 11.7979 -17.9169
v  -50.9671 11.7979 -19.2701
v  -50.9671 11.0086 -19.2701
v  -31.9854 10.0604 27.0639
v  -31.9854 12.7461 27.0639
v  -31.9854 10.0604 30.3137
v  -31.9854 12.7461 30.3137
v  -31.9847 12.7461 -16.9686
v  -31.9847 10.0604 -16.9686
v  -31.9847 12.7461 -20.2184
v  -31.9847 10.0604 -20.2184
v  -41.4766 10.0604 27.0639
v  -41.4766 12.7461 27.0639
v  -41.4766 10.0604 30.3137
v  -41.4766 12.7461 30.3137
v  -41.4759 12.7461 -16.9686
v  -41.4759 10.0604 -16.9686
v  -41.4759 12.7461 -20.2184
v  -41.4759 10.0604 -20.2184
v  -41.4766 11.0086 28.0122
v  -41.4766 11.7979 28.0122
v  -41.4766 11.0086 29.3654
v  -41.4766 11.7979 29.3654
v  -41.4759 11.7979 -17.9169
v  -41.4759 11.0086 -17.9169
v  -41.4759 11.7979 -19.2701
v  -41.4759 11.0086 -19.2701
# 202 vertices

vn -0.0173 -0.9902 -0.1382
vn 0.0000 -0.9879 -0.1551
vn 0.0000 -0.9879 0.1551
vn -0.0173 -0.9902 0.1382
vn -0.0920 0.7275 0.6799
vn 0.1601 0.7322 0.6620
vn 0.1601 0.7322 -0.6620
vn -0.0920 0.7275 -0.6799
vn 0.6911 -0.0746 0.7189
vn -0.6801 0.1756 0.7118
vn -0.6801 -0.1756 0.7118
vn 0.6911 0.0746 0.7189
vn 0.8330 -0.5224 -0.1823
vn 0.8330 0.5224 -0.1823
vn 0.8330 0.5224 0.1823
vn 0.8330 -0.5224 0.1823
vn -0.6801 0.1756 -0.7118
vn 0.6488 -0.0647 -0.7582
vn 0.6488 0.0647 -0.7582
vn -0.6801 -0.1756 -0.7118
vn -0.6893 -0.6032 0.4012
vn -0.4551 -0.8049 0.3807
vn -0.4551 -0.8049 -0.3807
vn -0.6893 -0.6032 -0.4012
vn 0.0000 0.8144 0.5804
vn -0.2555 0.8200 0.5122
vn 0.2085 0.7891 0.5778
vn 0.0000 -0.8144 0.5804
vn 0.2085 -0.7891 0.5778
vn -0.2555 -0.8200 0.5122
vn 0.4883 0.1061 -0.8662
vn 0.2012 0.4348 -0.8778
vn 0.7102 -0.0007 -0.7040
vn 0.6831 0.7288 0.0464
vn 0.7531 0.6524 -0.0849
vn 0.7531 0.6524 0.0849
vn 0.6831 0.7288 -0.0464
vn 0.7102 -0.0007 0.7040
vn 0.2012 0.4348 0.8778
vn 0.4883 0.1061 0.8662
vn 0.4883 -0.1059 0.8662
vn 0.2012 -0.4346 0.8779
vn 0.7101 0.0017 0.7041
vn 0.7107 -0.7033 -0.0154
vn 0.6743 -0.7295 0.1146
vn 0.6743 -0.7295 -0.1146
vn 0.7107 -0.7033 0.0154
vn 0.7101 0.0017 -0.7041
vn 0.2012 -0.4346 -0.8779
vn 0.4883 -0.1059 -0.8662
vn 0.0000 0.8144 -0.5804
vn 0.1262 0.5024 -0.8554
vn 0.2982 0.4398 -0.8471
vn -0.2556 0.8201 -0.5120
vn 0.1262 -0.5023 -0.8554
vn 0.0000 -0.8144 -0.5804
vn -0.2556 -0.8201 -0.5120
vn 0.2982 -0.4397 -0.8472
vn -0.8250 -0.5644 -0.0287
vn -0.7880 0.4610 0.4081
vn -0.7195 0.6889 0.0876
vn -0.7195 0.6889 -0.0876
vn -0.7880 0.4610 -0.4081
vn -0.8250 -0.5644 0.0287
vn -0.8250 0.5644 0.0287
vn -0.7880 -0.4610 -0.4081
vn -0.7892 -0.6089 -0.0797
vn -0.7892 -0.6089 0.0797
vn -0.7880 -0.4610 0.4081
vn -0.8250 0.5644 -0.0287
vn -0.0511 -0.9974 -0.0511
vn 0.0511 -0.9974 -0.0511
vn 0.0511 -0.9974 0.0511
vn -0.0511 -0.9974 0.0511
vn 0.2193 0.8672 0.4470
vn 0.2193 0.8672 -0.4470
vn -0.1132 0.9923 0.0497
vn -0.2337 0.9558 -0.1783
vn -0.2337 0.9558 0.1783
vn -0.1132 0.9923 -0.0497
vn 0.2344 0.6442 0.7281
vn -0.5774 0.5774 0.5774
vn -0.5774 -0.5774 0.5774
vn 0.2344 -0.6442 0.7281
vn 0.2344 -0.6442 -0.7280
vn -0.5774 -0.5773 -0.5774
vn -0.5774 0.5774 -0.5774
vn 0.2344 0.6442 -0.7281
vn -0.1200 -0.4625 0.8785
vn -0.1218 0.7414 0.6600
vn -0.3479 0.4602 0.8168
vn 0.0920 0.2654 0.9598
vn -0.0241 -0.3140 0.9491
vn -0.4584 -0.4853 0.7446
vn -0.1218 -0.7414 0.6600
vn -0.1200 0.4625 0.8785
vn 0.0920 0.2653 -0.9598
vn -0.3478 0.4602 -0.8169
vn -0.1218 0.7414 -0.6600
vn -0.1200 -0.4625 -0.8785
vn -0.1200 0.4625 -0.8785
vn -0.1218 -0.7414 -0.6600
vn -0.4584 -0.4853 -0.7446
vn -0.0241 -0.3140 -0.9491
vn -0.8728 0.2961 -0.3880
vn 0.7697 0.0372 -0.6373
vn -0.8580 -0.3367 0.3880
vn -0.8580 0.3367 0.3880
vn -0.8110 0.4277 -0.3992
vn -0.8110 -0.4277 -0.3992
vn 0.7697 -0.0372 -0.6373
vn -0.8728 -0.2961 -0.3880
vn 0.7721 0.4341 0.4641
vn 0.7721 -0.4341 0.4641
vn 0.8256 -0.4143 -0.3830
vn 0.8256 0.4143 -0.3830
vn 0.8191 0.0542 0.5710
vn -0.8728 0.2961 0.3880
vn 0.7721 -0.4341 -0.4641
vn 0.7721 0.4341 -0.4641
vn 0.8256 0.4143 0.3830
vn 0.8256 -0.4143 0.3830
vn -0.8728 -0.2961 0.3880
vn 0.8191 -0.0542 0.5710
vn -0.8582 0.3364 -0.3877
vn -0.8582 -0.3364 -0.3877
vn -0.8110 -0.4277 0.3992
vn -0.8110 0.4277 0.3992
vn -0.1429 0.8721 0.4681
vn 0.0000 0.5361 0.8442
vn 0.0000 0.5431 0.8397
vn -0.1429 0.8721 -0.4681
vn 0.0000 0.5431 -0.8397
vn 0.0000 0.5361 -0.8442
vn -0.1926 0.7012 0.6865
vn -0.1926 0.7012 -0.6865
vn -0.1931 0.9810 0.0158
vn -0.1328 0.8302 -0.5414
vn -0.1931 0.9810 -0.0158
vn -0.1328 0.8302 0.5414
vn 0.7061 0.4665 -0.5327
vn -0.4003 0.7157 -0.5722
vn -0.4317 0.7016 0.5670
vn 0.6828 0.4979 0.5347
vn -0.4003 -0.7157 -0.5722
vn 0.7061 -0.4665 -0.5327
vn 0.6828 -0.4979 0.5347
vn -0.4317 -0.7016 0.5670
vn -0.4003 0.7157 0.5722
vn 0.6828 0.4979 -0.5347
vn -0.4317 0.7016 -0.5670
vn -0.4003 -0.7157 0.5722
vn -0.4317 -0.7016 -0.5670
vn 0.6828 -0.4979 -0.5347
vn -0.0000 -0.7145 -0.6996
vn 0.0000 -0.7145 -0.6996
vn 0.0000 -0.7145 0.6996
vn -0.0000 -0.7145 0.6996
vn -0.1925 -0.7012 -0.6865
vn -0.1925 -0.7012 0.6865
vn -0.0870 -0.9857 0.1445
vn -0.1442 -0.6995 0.6999
vn -0.0870 -0.9857 -0.1445
vn -0.1442 -0.6995 -0.6999
vn -0.3062 0.7466 0.5906
vn -0.3062 -0.7466 0.5906
vn -0.3012 -0.4917 0.8170
vn -0.3186 0.8648 0.3880
vn -0.0840 0.9790 -0.1860
vn -0.0840 0.9790 0.1860
vn -0.3186 0.8648 -0.3880
vn -0.3012 -0.4917 -0.8170
vn -0.3062 0.7466 -0.5906
vn -0.3062 -0.7466 -0.5906
vn -0.3012 0.4917 -0.8170
vn -0.3722 -0.6647 -0.6478
vn -0.2721 -0.9502 -0.1519
vn -0.2721 -0.9502 0.1519
vn -0.3722 -0.6647 0.6478
vn -0.3012 0.4917 0.8170
vn 0.6317 0.5539 -0.5424
vn 0.6317 0.5539 0.5424
vn 0.6321 -0.5535 -0.5424
vn 0.6321 -0.5535 0.5424
vn -0.5773 0.5774 -0.5774
vn -0.5774 -0.5773 0.5774
vn -0.5773 0.5774 0.5774
vn -0.5774 -0.5774 -0.5774
vn -0.9045 -0.3015 -0.3015
vn -0.9045 0.3015 -0.3015
vn -0.9045 -0.3015 0.3015
vn -0.9045 0.3015 0.3015
# 192 vertex normals

vt 0.4040 0.7987 0.0000
vt 0.1640 0.7987 0.0000
vt 0.1640 0.2013 0.0000
vt 0.4040 0.2013 0.0000
vt 0.5960 0.2013 0.0000
vt 0.8360 0.2013 0.0000
vt 0.8360 0.7987 0.0000
vt 0.5960 0.7987 0.0000
vt 0.8360 0.6667 0.0000
vt 0.5960 0.6667 0.0000
vt 0.5960 0.3333 0.0000
vt 0.8360 0.3333 0.0000
vt 1.0000 0.3333 0.0000
vt 1.0000 0.6667 0.0000
vt 0.0000 0.6667 0.0000
vt 0.0000 0.3333 0.0000
vt 0.4040 0.6667 0.0000
vt 0.1640 0.6667 0.0000
vt 0.1640 0.3333 0.0000
vt 0.4040 0.3333 0.0000
vt 1.0000 0.8342 0.0000
vt 0.9027 1.0000 0.0000
vt 0.7987 1.0000 0.0000
vt 0.2013 1.0000 0.0000
vt 0.0973 1.0000 0.0000
vt 0.0000 0.8342 0.0000
vt 0.0000 0.1658 0.0000
vt 0.0973 0.0000 0.0000
vt 0.2013 0.0000 0.0000
vt 0.7987 0.0000 0.0000
vt 0.9027 0.0000 0.0000
vt 1.0000 0.1658 0.0000
vt 1.0000 1.0000 0.0000
vt 0.0000 1.0000 0.0000
vt 0.0000 0.0000 0.0000
vt 1.0000 0.0000 0.0000
vt 0.0000 0.7987 0.0000
vt 0.0000 0.2013 0.0000
vt 1.0000 0.2013 0.0000
vt 1.0000 0.7987 0.0000
vt 0.3441 0.6667 0.0000
vt 0.2259 0.6667 0.0000
vt 0.2259 0.3333 0.0000
vt 0.3441 0.3333 0.0000
vt 0.6559 0.3333 0.0000
vt 0.7741 0.3333 0.0000
vt 0.7741 0.6667 0.0000
vt 0.6559 0.6667 0.0000
vt 0.5960 0.0000 0.0000
vt 0.8360 0.0000 0.0000
vt 0.8360 1.0000 0.0000
vt 0.5960 1.0000 0.0000
vt 0.4040 1.0000 0.0000
vt 0.1640 1.0000 0.0000
vt 0.9783 0.0000 0.0000
vt 1.0000 0.0973 0.0000
vt 1.0000 0.9027 0.0000
vt 0.9783 1.0000 0.0000
vt 0.0217 1.0000 0.0000
vt 0.1640 0.0000 0.0000
vt 0.4040 0.0000 0.0000
vt 0.0000 0.9027 0.0000
vt 0.0000 0.0973 0.0000
vt 0.0217 0.0000 0.0000
# 64 texture coords

o Box001
g Box001
usemtl wire_166229229
s off
f 9/5/9 10/6/10 11/7/11 12/8/12 
f 13/9/13 14/10/14 15/11/15 16/12/16 
f 17/13/17 18/14/18 19/15/19 20/16/20 
f 21/17/21 22/18/22 23/19/23 24/20/24 
f 25/21/25 26/22/26 27/23/27 28/24/28 
f 29/17/29 30/18/30 31/19/31 32/20/32 
f 33/13/33 34/14/33 35/14/34 36/13/35 
f 37/15/36 38/16/36 39/16/37 40/15/38 
f 41/18/39 41/18/40 42/25/41 43/26/42 44/27/43 45/28/44 46/29/45 47/30/46 48/19/47 48/19/48 
f 49/20/49 49/20/50 50/31/51 51/32/52 52/33/53 53/34/54 54/35/55 55/36/56 56/17/57 56/17/58 
f 57/21/59 58/22/60 58/22/61 59/21/62 
f 60/23/63 61/24/64 62/24/65 60/23/66 
f 30/18/30 30/18/67 63/37/68 64/27/69 65/28/70 66/38/71 31/19/72 31/19/31 
f 32/20/32 32/20/73 67/39/74 68/33/75 69/34/76 70/40/77 29/17/78 29/17/29 
f 10/6/10 53/41/54 52/42/53 11/7/11 
f 71/8/79 72/43/80 73/44/81 74/5/82 
f 75/10/83 45/43/44 44/44/43 76/11/84 
f 77/12/85 78/41/86 79/42/87 80/9/88 
f 81/45/89 82/46/90 83/47/91 84/48/92 
f 39/16/37 49/17/49 48/18/48 36/13/35 
f 58/22/61 41/19/39 56/20/58 60/23/66 
f 85/49/93 86/50/94 87/51/95 88/52/96 
f 34/14/33 89/19/97 89/19/98 90/46/99 91/45/100 35/14/34 
f 36/13/35 48/18/48 48/18/47 33/13/33 
f 38/16/36 49/17/50 49/17/49 39/16/37 
f 40/15/38 92/48/101 93/47/102 94/20/103 94/20/104 37/15/36 
f 58/22/60 41/19/40 41/19/39 58/22/61 
f 59/21/62 95/52/105 96/51/106 97/18/107 97/18/108 57/21/59 
f 61/24/64 98/17/109 98/17/110 99/50/111 100/49/112 62/24/65 
f 60/23/66 56/20/58 56/20/57 60/23/63 
f 36/13/35 35/14/34 101/14/113 102/13/114 
f 103/14/115 104/15/116 105/15/117 106/14/118 
f 40/15/38 39/16/37 107/16/119 108/15/120 
f 109/16/121 110/13/122 111/13/123 112/16/124 
f 59/21/62 58/22/61 113/22/125 114/21/126 
f 115/22/127 116/23/128 117/23/129 118/22/130 
f 60/23/66 62/24/65 119/24/131 120/23/132 
f 121/24/133 122/21/134 123/21/135 124/24/136 
f 75/10/83 125/9/137 126/53/138 127/54/139 
f 128/12/140 76/11/84 129/55/141 130/56/142 
f 34/14/33 33/13/33 127/55/139 126/56/138 
f 58/22/60 57/21/59 130/57/142 129/58/141 
f 45/43/44 75/10/83 127/54/139 131/59/143 46/60/45 
f 76/11/84 44/44/43 43/61/42 132/62/144 129/55/141 
f 133/41/145 128/12/140 130/56/142 134/38/146 
f 125/9/137 135/42/147 136/39/148 126/53/138 
f 89/19/97 34/14/33 126/56/138 136/38/148 
f 33/13/33 48/18/47 47/25/46 131/62/143 127/55/139 
f 41/19/40 58/22/60 129/58/141 132/63/144 42/30/41 
f 57/21/59 97/18/108 134/37/146 130/57/142 
f 137/13/149 138/14/150 139/14/151 140/13/152 
f 101/14/113 108/15/120 19/15/19 18/14/18 
f 141/15/153 142/16/154 143/16/155 144/15/156 
f 107/16/119 102/13/114 17/13/17 20/16/20 
f 145/21/157 146/22/152 147/22/158 148/21/159 
f 113/22/125 120/23/132 27/23/27 26/22/26 
f 149/23/155 150/24/160 151/24/161 152/23/162 
f 119/24/131 114/21/126 25/21/25 28/24/28 
f 102/13/114 101/14/113 138/14/150 137/13/149 
f 101/14/113 18/14/18 139/14/151 138/14/150 
f 18/14/18 17/13/17 140/13/152 139/14/151 
f 17/13/17 102/13/114 137/13/149 140/13/152 
f 108/15/120 107/16/119 142/16/154 141/15/153 
f 107/16/119 20/16/20 143/16/155 142/16/154 
f 20/16/20 19/15/19 144/15/156 143/16/155 
f 19/15/19 108/15/120 141/15/153 144/15/156 
f 114/21/126 113/22/125 146/22/152 145/21/157 
f 113/22/125 26/22/26 147/22/158 146/22/152 
f 26/22/26 25/21/25 148/21/159 147/22/158 
f 25/21/25 114/21/126 145/21/157 148/21/159 
f 120/23/132 119/24/131 150/24/160 149/23/155 
f 119/24/131 28/24/28 151/24/161 150/24/160 
f 28/24/28 27/23/27 152/23/162 151/24/161 
f 27/23/27 120/23/132 149/23/155 152/23/162 
f 125/9/137 75/10/83 14/10/14 13/9/13 
f 75/10/83 76/11/84 15/11/15 14/10/14 
f 76/11/84 128/12/140 16/12/16 15/11/15 
f 128/12/140 125/9/137 13/9/13 16/12/16 
f 10/6/10 9/5/9 153/57/163 154/58/164 
f 12/8/12 11/7/11 155/64/165 156/65/166 
f 38/16/36 37/15/36 156/53/166 155/54/165 
f 61/24/64 60/23/63 154/64/164 153/65/163 
f 53/41/54 10/6/10 154/58/164 157/63/167 54/66/55 
f 11/7/11 52/42/53 51/67/52 158/68/168 155/64/165 
f 159/43/169 12/8/12 156/65/166 160/40/170 
f 9/5/9 161/44/171 162/37/172 153/57/163 
f 49/17/50 38/16/36 155/54/165 158/59/168 50/36/51 
f 37/15/36 94/20/104 160/39/170 156/53/166 
f 98/17/109 61/24/64 153/65/163 162/40/172 
f 60/23/63 56/20/57 55/31/56 157/68/167 154/64/164 
f 94/17/103 89/18/98 163/18/173 164/17/174 
f 89/18/98 89/18/97 163/18/175 163/18/173 
f 89/18/97 136/37/148 165/37/176 163/18/175 
f 136/37/148 135/27/147 166/27/177 165/37/176 
f 135/27/147 133/28/145 167/28/178 166/27/177 
f 133/28/145 134/38/146 168/38/179 167/28/178 
f 134/38/146 97/19/108 169/19/180 168/38/179 
f 97/19/108 97/19/107 169/19/181 169/19/180 
f 97/19/107 98/20/110 170/20/182 169/19/181 
f 98/20/110 98/20/109 170/20/183 170/20/182 
f 98/20/109 162/39/172 171/39/184 170/20/183 
f 162/39/172 161/33/171 172/33/185 171/39/184 
f 161/33/171 159/34/169 173/34/186 172/33/185 
f 159/34/169 160/40/170 174/40/187 173/34/186 
f 160/40/170 94/17/104 164/17/188 174/40/187 
f 94/17/104 94/17/103 164/17/174 164/17/188 
f 164/17/174 163/18/173 30/18/30 29/17/29 
f 163/18/173 163/18/175 30/18/67 30/18/30 
f 163/18/175 165/37/176 63/37/68 30/18/67 
f 165/37/176 166/27/177 64/27/69 63/37/68 
f 166/27/177 167/28/178 65/28/70 64/27/69 
f 167/28/178 168/38/179 66/38/71 65/28/70 
f 168/38/179 169/19/180 31/19/72 66/38/71 
f 169/19/180 169/19/181 31/19/31 31/19/72 
f 169/19/181 170/20/182 32/20/32 31/19/31 
f 170/20/182 170/20/183 32/20/73 32/20/32 
f 170/20/183 171/39/184 67/39/74 32/20/73 
f 171/39/184 172/33/185 68/33/75 67/39/74 
f 172/33/185 173/34/186 69/34/76 68/33/75 
f 173/34/186 174/40/187 70/40/77 69/34/76 
f 174/40/187 164/17/188 29/17/78 70/40/77 
f 164/17/188 164/17/174 29/17/29 29/17/78 
f 132/63/144 175/38/189 42/30/41 
f 43/61/42 175/37/189 132/62/144 
f 42/25/41 175/37/189 43/26/42 
f 47/25/46 176/37/190 131/62/143 
f 46/29/45 176/38/190 47/30/46 
f 131/59/143 176/40/190 46/60/45 
f 55/31/56 177/39/191 157/68/167 
f 54/35/55 177/40/191 55/36/56 
f 157/63/167 177/38/191 54/66/55 
f 51/67/52 178/39/192 158/68/168 
f 50/31/51 178/39/192 51/32/52 
f 158/59/168 178/40/192 50/36/51 
f 35/14/34 40/15/38 104/15/116 103/14/115 
f 40/15/38 108/15/120 105/15/117 104/15/116 
f 108/15/120 101/14/113 106/14/118 105/15/117 
f 101/14/113 35/14/34 103/14/115 106/14/118 
f 39/16/37 36/13/35 110/13/122 109/16/121 
f 36/13/35 102/13/114 111/13/123 110/13/122 
f 102/13/114 107/16/119 112/16/124 111/13/123 
f 107/16/119 39/16/37 109/16/121 112/16/124 
f 58/22/61 60/23/66 116/23/128 115/22/127 
f 60/23/66 120/23/132 117/23/129 116/23/128 
f 120/23/132 113/22/125 118/22/130 117/23/129 
f 113/22/125 58/22/61 115/22/127 118/22/130 
f 62/24/65 59/21/62 122/21/134 121/24/133 
f 59/21/62 114/21/126 123/21/135 122/21/134 
f 114/21/126 119/24/131 124/24/136 123/21/135 
f 119/24/131 62/24/65 121/24/133 124/24/136 
f 133/41/145 135/42/147 79/42/87 78/41/86 
f 135/42/147 125/9/137 80/9/88 79/42/87 
f 125/9/137 128/12/140 77/12/85 80/9/88 
f 128/12/140 133/41/145 78/41/86 77/12/85 
f 9/5/9 12/8/12 71/8/79 74/5/82 
f 12/8/12 159/43/169 72/43/80 71/8/79 
f 159/43/169 161/44/171 73/44/81 72/43/80 
f 161/44/171 9/5/9 74/5/82 73/44/81 
f 90/46/99 89/19/98 94/20/103 93/47/102 
f 92/48/101 40/15/38 35/14/34 91/45/100 
f 99/50/111 98/17/110 97/18/107 96/51/106 
f 95/52/105 59/21/62 62/24/65 100/49/112 
f 91/45/100 90/46/99 82/46/90 81/45/89 
f 179/46/193 180/47/94 181/47/194 182/46/195 
f 93/47/102 92/48/101 84/48/92 83/47/91 
f 92/48/101 91/45/100 81/45/89 84/48/92 
f 100/49/112 99/50/111 86/50/94 85/49/93 
f 183/50/91 184/51/90 185/51/95 186/50/196 
f 96/51/106 95/52/105 88/52/96 87/51/95 
f 95/52/105 100/49/112 85/49/93 88/52/96 
f 90/46/99 93/47/102 187/47/197 188/46/198 
f 93/47/102 83/47/91 189/47/199 187/47/197 
f 83/47/91 82/46/90 190/46/200 189/47/199 
f 82/46/90 90/46/99 188/46/198 190/46/200 
f 99/50/111 96/51/106 191/51/200 192/50/199 
f 96/51/106 87/51/95 193/51/198 191/51/200 
f 87/51/95 86/50/94 194/50/197 193/51/198 
f 86/50/94 99/50/111 192/50/199 194/50/197 
f 188/46/198 187/47/197 195/47/94 196/46/193 
f 187/47/197 189/47/199 197/47/194 195/47/94 
f 189/47/199 190/46/200 198/46/195 197/47/194 
f 190/46/200 188/46/198 196/46/193 198/46/195 
f 192/50/199 191/51/200 199/51/90 200/50/91 
f 191/51/200 193/51/198 201/51/95 199/51/90 
f 193/51/198 194/50/197 202/50/196 201/51/95 
f 194/50/197 192/50/199 200/50/91 202/50/196 
f 196/46/193 195/47/94 203/47/197 204/46/198 
f 195/47/94 197/47/194 205/47/199 203/47/197 
f 197/47/194 198/46/195 206/46/200 205/47/199 
f 198/46/195 196/46/193 204/46/198 206/46/200 
f 200/50/91 199/51/90 207/51/200 208/50/199 
f 199/51/90 201/51/95 209/51/198 207/51/200 
f 201/51/95 202/50/196 210/50/197 209/51/198 
f 202/50/196 200/50/91 208/50/199 210/50/197 
f 204/46/198 203/47/197 180/47/94 179/46/193 
f 203/47/197 205/47/199 181/47/194 180/47/94 
f 205/47/199 206/46/200 182/46/195 181/47/194 
f 206/46/200 204/46/198 179/46/193 182/46/195 
f 208/50/199 207/51/200 184/51/90 183/50/91 
f 207/51/200 209/51/198 185/51/95 184/51/90 
f 209/51/198 210/50/197 186/50/196 185/51/95 
f 210/50/197 208/50/199 183/50/91 186/50/196 
f 56/17/58 41/18/39 22/18/22 21/17/21 
f 41/18/39 48/19/48 23/19/23 22/18/22 
f 48/19/48 49/20/49 24/20/24 23/19/23 
f 49/20/49 56/17/58 21/17/21 24/20/24 
# 194 polygons - 12 triangles

